<?xml version="1.0" encoding="iso-8859-1"?>
<!-- Generator: Adobe Illustrator 19.0.0, SVG Export Plug-In . SVG Version: 6.00 Build 0)  -->
<svg xmlns="http://www.w3.org/2000/svg" xmlns:xlink="http://www.w3.org/1999/xlink" version="1.1" id="Layer_1" x="0px" y="0px" viewBox="0 0 505.62 505.62" style="enable-background:new 0 0 505.62 505.62;" xml:space="preserve" width="512" height="512">
<g>
	<g>
		<path style="fill:#AD7136;" d="M290.029,74.23c5.53-15.26,15.21-28.97,28.31-39.41c-7.26-9.11-14.52-18.22-21.78-27.32    c-21.79,17.37-36.77,41.23-43.24,67.52l16.857,23.051L290.029,74.23z"/>
		<path style="fill:#654B87;" d="M318.668,70.705c-16.92,0-33.213,3.626-48.492,10.311c-15.279-6.685-31.571-10.311-48.492-10.311    c-87.092,0-157.693,95.681-157.693,213.708s70.602,213.708,157.693,213.708c16.92,0,33.213-3.626,48.492-10.311    c15.279,6.685,31.572,10.311,48.492,10.311c87.092,0,157.693-95.68,157.693-213.708S405.76,70.705,318.668,70.705z"/>
		<path style="fill:#463068;" d="M238.188,496.96c-5.42,0.77-10.93,1.16-16.5,1.16c-87.09,0-157.7-95.68-157.7-213.71    s70.61-213.71,157.7-213.71c5.57,0,11.08,0.39,16.5,1.16c-38.99,11.22-69.4,102.1-69.4,212.55S199.198,485.74,238.188,496.96z"/>
		<path style="fill:#70D65B;" d="M214.868,227.44c-41.08,41.08-97.42,57.61-150.78,49.59c-9-1.34-17.91-3.39-26.65-6.13    c-19.03-60.58-4.55-129.42,43.46-177.43c48.01-48.01,116.84-62.49,177.42-43.45c0.56,1.79,1.1,3.59,1.59,5.4    C276.468,114.66,261.458,180.85,214.868,227.44z"/>
		<path style="fill:#58B741;" d="M259.908,55.42c-86.2,33.58-184.86,165.8-195.82,221.61c-9-1.34-17.91-3.39-26.65-6.13    c-19.03-60.58-4.55-129.42,43.46-177.43c48.01-48.01,116.84-62.49,177.42-43.45C258.878,51.81,259.418,53.61,259.908,55.42z"/>
	</g>
	<g>
		<path d="M459.071,167.672c-15.902-34.284-38.474-62.085-65.273-80.398c-3.421-2.336-8.087-1.459-10.424,1.961    c-2.337,3.42-1.459,8.087,1.961,10.424c24.57,16.789,45.362,42.49,60.129,74.325c15.304,32.995,23.394,71.179,23.394,110.426    c0,113.705-67.375,206.21-150.189,206.21c-15.486,0-30.79-3.258-45.486-9.682c-1.914-0.837-4.094-0.837-6.008,0    c-14.696,6.425-30,9.682-45.486,9.682c-33.512,0-65.245-14.898-91.768-43.083c-2.839-3.016-7.586-3.16-10.602-0.322    c-3.017,2.839-3.161,7.585-0.322,10.602c29.429,31.273,64.939,47.803,102.692,47.803c16.509,0,32.806-3.251,48.49-9.667    c15.684,6.416,31.98,9.667,48.49,9.667c44.563,0,86.305-23.312,117.538-65.641c30.729-41.645,47.651-96.894,47.651-155.569    C483.857,242.999,475.286,202.631,459.071,167.672z"/>
		<path d="M71.498,285.574c6.358,0.664,12.718,1.001,19.057,1.001c47.907,0,94.582-18.793,129.616-53.828    c38.76-38.759,57.612-91.759,53.162-144.919c14.642-6.388,29.894-9.628,45.335-9.628c14.271,0,28.39,2.756,41.966,8.192    c3.843,1.539,8.211-0.329,9.751-4.175c1.539-3.845-0.33-8.211-4.175-9.75c-15.357-6.149-31.354-9.267-47.542-9.267    c-5.286,0-10.548,0.337-15.775,1.001c5.127-9.007,11.938-16.995,20.119-23.515c3.239-2.582,3.773-7.3,1.191-10.54    c-7.261-9.111-14.522-18.222-21.782-27.323c-2.582-3.236-7.298-3.769-10.537-1.189c-13.862,11.044-25.405,24.894-33.837,40.485    C193.2,22.74,123.512,40.245,75.591,88.168C27.049,136.71,9.689,207.589,30.286,273.144c0.735,2.34,2.567,4.172,4.907,4.907    c7.049,2.215,14.16,3.986,21.297,5.331c-0.001,0.342-0.003,0.679-0.003,1.028c0,55.021,15.135,107.735,42.618,148.431    c1.449,2.146,3.814,3.303,6.222,3.303c1.444,0,2.904-0.416,4.19-1.285c3.433-2.318,4.336-6.98,2.018-10.413    C85.903,386.49,71.708,337.212,71.498,285.574z M295.52,18.228c4.152,5.207,8.307,10.418,12.459,15.629    c-10.224,9.528-18.257,21.16-23.562,34.111c-4.379,1.235-8.719,2.712-13.015,4.423c-0.927-5.464-2.127-10.913-3.56-16.336    C274.42,41.729,283.881,28.805,295.52,18.228z M86.197,98.774c40.776-40.776,98.713-57.583,154.377-45.675    c-8.825,6.286-21.335,15.581-35.862,27.481l-58.848,6.782c-4.115,0.474-7.066,4.194-6.592,8.309    c0.474,4.115,4.194,7.067,8.309,6.592l36.625-4.221c-12.164,10.775-25.683,23.54-39.313,37.908l-37.959,3.521    c-4.124,0.383-7.158,4.036-6.775,8.161c0.382,4.125,4.037,7.155,8.161,6.775l21.584-2.002    c-15.902,18.194-31.311,38.381-44.183,59.926c-2.125,3.556-0.964,8.161,2.592,10.285c1.206,0.72,2.531,1.063,3.839,1.063    c2.553,0,5.042-1.304,6.446-3.655c12.201-20.423,26.826-39.694,42.247-57.353v19.453c0,4.142,3.358,7.5,7.5,7.5s7.5-3.358,7.5-7.5    v-35.894c13.767-14.478,27.738-27.611,40.84-39.093l-7.825,43.691c-0.73,4.077,1.983,7.975,6.06,8.705    c0.447,0.08,0.892,0.119,1.331,0.119c3.563,0,6.724-2.549,7.374-6.179l11.023-61.547c16.783-13.735,30.851-23.963,39.273-29.849    c14.346,57.379-2.19,117.897-44.357,160.063c-43.649,43.649-106.963,59.843-166.104,42.737    C26.355,205.738,42.549,142.423,86.197,98.774z"/>
	</g>
</g>















</svg>
